<mxfile host="app.diagrams.net" modified="2024-05-29T20:42:41.378Z" agent="Mozilla/5.0 (Windows NT 10.0; Win64; x64; rv:126.0) Gecko/20100101 Firefox/126.0" etag="mgZtr4tKQRES1q2ZHcjr" version="24.4.10" type="device" pages="2">
  <diagram name="Page-1" id="hvSOnWFJPQWDraMH3YJp">
    <mxGraphModel dx="1500" dy="797" grid="0" gridSize="10" guides="1" tooltips="1" connect="1" arrows="1" fold="1" page="1" pageScale="1" pageWidth="850" pageHeight="1100" math="0" shadow="0">
      <root>
        <mxCell id="0" />
        <mxCell id="1" parent="0" />
        <mxCell id="D6p_Ezjivhz1BYFqhGSG-1" value="Client(Web Browser)" style="shape=umlActor;verticalLabelPosition=bottom;verticalAlign=top;html=1;outlineConnect=0;" vertex="1" parent="1">
          <mxGeometry x="90" y="245" width="30" height="60" as="geometry" />
        </mxCell>
        <mxCell id="D6p_Ezjivhz1BYFqhGSG-2" value="Http Server" style="shape=umlActor;verticalLabelPosition=bottom;verticalAlign=top;html=1;outlineConnect=0;" vertex="1" parent="1">
          <mxGeometry x="750" y="245" width="30" height="60" as="geometry" />
        </mxCell>
        <mxCell id="D6p_Ezjivhz1BYFqhGSG-3" value="&amp;lt;&amp;lt;include&amp;gt;&amp;gt;" style="endArrow=open;endSize=12;dashed=1;html=1;rounded=0;exitX=0;exitY=0;exitDx=0;exitDy=0;" edge="1" parent="1" source="D6p_Ezjivhz1BYFqhGSG-4" target="D6p_Ezjivhz1BYFqhGSG-5">
          <mxGeometry width="160" relative="1" as="geometry">
            <mxPoint x="370" y="115" as="sourcePoint" />
            <mxPoint x="470" y="95" as="targetPoint" />
          </mxGeometry>
        </mxCell>
        <mxCell id="D6p_Ezjivhz1BYFqhGSG-4" value="Request Specific files" style="ellipse;whiteSpace=wrap;html=1;" vertex="1" parent="1">
          <mxGeometry x="370" y="165" width="140" height="70" as="geometry" />
        </mxCell>
        <mxCell id="D6p_Ezjivhz1BYFqhGSG-5" value="Verify Content-type" style="ellipse;whiteSpace=wrap;html=1;" vertex="1" parent="1">
          <mxGeometry x="200" y="55" width="140" height="70" as="geometry" />
        </mxCell>
        <mxCell id="D6p_Ezjivhz1BYFqhGSG-6" value="Display Content-Type Error" style="ellipse;whiteSpace=wrap;html=1;" vertex="1" parent="1">
          <mxGeometry x="540" y="55" width="140" height="70" as="geometry" />
        </mxCell>
        <mxCell id="D6p_Ezjivhz1BYFqhGSG-7" value="&amp;lt;&amp;lt;exclude&amp;gt;&amp;gt;" style="endArrow=open;endSize=12;dashed=1;html=1;rounded=0;exitX=0.036;exitY=0.62;exitDx=0;exitDy=0;exitPerimeter=0;" edge="1" parent="1" source="D6p_Ezjivhz1BYFqhGSG-6" target="D6p_Ezjivhz1BYFqhGSG-4">
          <mxGeometry x="0.0442" y="2" width="160" relative="1" as="geometry">
            <mxPoint x="340" y="285" as="sourcePoint" />
            <mxPoint x="500" y="285" as="targetPoint" />
            <mxPoint as="offset" />
          </mxGeometry>
        </mxCell>
        <mxCell id="D6p_Ezjivhz1BYFqhGSG-8" value="" style="endArrow=none;html=1;rounded=0;entryX=0.5;entryY=0.5;entryDx=0;entryDy=0;entryPerimeter=0;" edge="1" parent="1" source="D6p_Ezjivhz1BYFqhGSG-4" target="D6p_Ezjivhz1BYFqhGSG-2">
          <mxGeometry width="50" height="50" relative="1" as="geometry">
            <mxPoint x="400" y="315" as="sourcePoint" />
            <mxPoint x="450" y="265" as="targetPoint" />
          </mxGeometry>
        </mxCell>
        <mxCell id="D6p_Ezjivhz1BYFqhGSG-9" value="Request Specific Routes" style="ellipse;whiteSpace=wrap;html=1;" vertex="1" parent="1">
          <mxGeometry x="370" y="425" width="140" height="70" as="geometry" />
        </mxCell>
        <mxCell id="D6p_Ezjivhz1BYFqhGSG-10" value="" style="endArrow=none;html=1;rounded=0;exitX=0.5;exitY=0.5;exitDx=0;exitDy=0;exitPerimeter=0;entryX=0;entryY=0.5;entryDx=0;entryDy=0;" edge="1" parent="1" source="D6p_Ezjivhz1BYFqhGSG-1" target="D6p_Ezjivhz1BYFqhGSG-9">
          <mxGeometry width="50" height="50" relative="1" as="geometry">
            <mxPoint x="400" y="295" as="sourcePoint" />
            <mxPoint x="450" y="245" as="targetPoint" />
          </mxGeometry>
        </mxCell>
        <mxCell id="D6p_Ezjivhz1BYFqhGSG-11" value="Verify File Path" style="ellipse;whiteSpace=wrap;html=1;" vertex="1" parent="1">
          <mxGeometry x="260" y="305" width="140" height="70" as="geometry" />
        </mxCell>
        <mxCell id="D6p_Ezjivhz1BYFqhGSG-12" value="Display File not found Error" style="ellipse;whiteSpace=wrap;html=1;" vertex="1" parent="1">
          <mxGeometry x="490" y="305" width="140" height="70" as="geometry" />
        </mxCell>
        <mxCell id="D6p_Ezjivhz1BYFqhGSG-13" value="&amp;lt;&amp;lt;include&amp;gt;&amp;gt;" style="endArrow=open;endSize=12;dashed=1;html=1;rounded=0;" edge="1" parent="1" source="D6p_Ezjivhz1BYFqhGSG-9" target="D6p_Ezjivhz1BYFqhGSG-11">
          <mxGeometry width="160" relative="1" as="geometry">
            <mxPoint x="355" y="285" as="sourcePoint" />
            <mxPoint x="545" y="215" as="targetPoint" />
          </mxGeometry>
        </mxCell>
        <mxCell id="D6p_Ezjivhz1BYFqhGSG-14" value="&amp;lt;&amp;lt;exclude&amp;gt;&amp;gt;" style="endArrow=open;endSize=12;dashed=1;html=1;rounded=0;exitX=0.036;exitY=0.62;exitDx=0;exitDy=0;exitPerimeter=0;entryX=0.721;entryY=0.04;entryDx=0;entryDy=0;entryPerimeter=0;" edge="1" parent="1" target="D6p_Ezjivhz1BYFqhGSG-9">
          <mxGeometry x="0.0442" y="2" width="160" relative="1" as="geometry">
            <mxPoint x="555" y="376" as="sourcePoint" />
            <mxPoint x="482" y="447" as="targetPoint" />
            <mxPoint as="offset" />
          </mxGeometry>
        </mxCell>
        <mxCell id="D6p_Ezjivhz1BYFqhGSG-15" value="" style="endArrow=none;html=1;rounded=0;exitX=1;exitY=0.5;exitDx=0;exitDy=0;entryX=0.5;entryY=0.5;entryDx=0;entryDy=0;entryPerimeter=0;" edge="1" parent="1" source="D6p_Ezjivhz1BYFqhGSG-9" target="D6p_Ezjivhz1BYFqhGSG-2">
          <mxGeometry width="50" height="50" relative="1" as="geometry">
            <mxPoint x="390" y="325" as="sourcePoint" />
            <mxPoint x="440" y="275" as="targetPoint" />
          </mxGeometry>
        </mxCell>
        <mxCell id="D6p_Ezjivhz1BYFqhGSG-16" value="" style="rounded=0;whiteSpace=wrap;html=1;fillColor=none;rotation=90;" vertex="1" parent="1">
          <mxGeometry x="67.5" y="95" width="740" height="565" as="geometry" />
        </mxCell>
        <mxCell id="D6p_Ezjivhz1BYFqhGSG-17" value="" style="endArrow=none;html=1;rounded=0;exitX=0.5;exitY=0.5;exitDx=0;exitDy=0;exitPerimeter=0;" edge="1" parent="1" source="D6p_Ezjivhz1BYFqhGSG-1">
          <mxGeometry width="50" height="50" relative="1" as="geometry">
            <mxPoint x="390" y="415" as="sourcePoint" />
            <mxPoint x="380" y="215" as="targetPoint" />
          </mxGeometry>
        </mxCell>
        <mxCell id="D6p_Ezjivhz1BYFqhGSG-18" value="Sends Data" style="ellipse;whiteSpace=wrap;html=1;" vertex="1" parent="1">
          <mxGeometry x="367.5" y="525" width="140" height="70" as="geometry" />
        </mxCell>
        <mxCell id="D6p_Ezjivhz1BYFqhGSG-19" value="" style="endArrow=none;html=1;rounded=0;exitX=0.5;exitY=0.5;exitDx=0;exitDy=0;exitPerimeter=0;entryX=0;entryY=0.5;entryDx=0;entryDy=0;" edge="1" parent="1" source="D6p_Ezjivhz1BYFqhGSG-1" target="D6p_Ezjivhz1BYFqhGSG-18">
          <mxGeometry width="50" height="50" relative="1" as="geometry">
            <mxPoint x="390" y="495" as="sourcePoint" />
            <mxPoint x="440" y="445" as="targetPoint" />
          </mxGeometry>
        </mxCell>
        <mxCell id="D6p_Ezjivhz1BYFqhGSG-20" value="" style="endArrow=none;html=1;rounded=0;exitX=1.004;exitY=0.357;exitDx=0;exitDy=0;exitPerimeter=0;entryX=0.5;entryY=0.5;entryDx=0;entryDy=0;entryPerimeter=0;" edge="1" parent="1" source="D6p_Ezjivhz1BYFqhGSG-18" target="D6p_Ezjivhz1BYFqhGSG-2">
          <mxGeometry width="50" height="50" relative="1" as="geometry">
            <mxPoint x="400" y="445" as="sourcePoint" />
            <mxPoint x="450" y="395" as="targetPoint" />
          </mxGeometry>
        </mxCell>
        <mxCell id="BGi1Y6xLnLoamNFEugEe-1" value="Handle Errors" style="ellipse;whiteSpace=wrap;html=1;" vertex="1" parent="1">
          <mxGeometry x="370" y="625" width="140" height="70" as="geometry" />
        </mxCell>
        <mxCell id="BGi1Y6xLnLoamNFEugEe-2" value="" style="endArrow=none;html=1;rounded=0;exitX=0.971;exitY=0.371;exitDx=0;exitDy=0;exitPerimeter=0;entryX=0.5;entryY=0.5;entryDx=0;entryDy=0;entryPerimeter=0;" edge="1" parent="1" source="BGi1Y6xLnLoamNFEugEe-1" target="D6p_Ezjivhz1BYFqhGSG-2">
          <mxGeometry width="50" height="50" relative="1" as="geometry">
            <mxPoint x="400" y="605" as="sourcePoint" />
            <mxPoint x="450" y="555" as="targetPoint" />
          </mxGeometry>
        </mxCell>
      </root>
    </mxGraphModel>
  </diagram>
  <diagram name="Page-2" id="ZI7HX2CxIqMthv1_kX0H">
    <mxGraphModel dx="1050" dy="558" grid="0" gridSize="10" guides="1" tooltips="1" connect="1" arrows="1" fold="1" page="1" pageScale="1" pageWidth="850" pageHeight="1100" math="0" shadow="0">
      <root>
        <mxCell id="0" />
        <mxCell id="1" parent="0" />
        <mxCell id="2dx92TncNuGPY8GcJ68K-1" value="User" style="rounded=0;whiteSpace=wrap;html=1;" vertex="1" parent="1">
          <mxGeometry x="171" y="84" width="120" height="60" as="geometry" />
        </mxCell>
        <mxCell id="2dx92TncNuGPY8GcJ68K-2" value="Web Browser" style="rounded=0;whiteSpace=wrap;html=1;" vertex="1" parent="1">
          <mxGeometry x="381" y="84" width="120" height="60" as="geometry" />
        </mxCell>
        <mxCell id="2dx92TncNuGPY8GcJ68K-3" value="Http Server" style="rounded=0;whiteSpace=wrap;html=1;" vertex="1" parent="1">
          <mxGeometry x="591" y="84" width="120" height="60" as="geometry" />
        </mxCell>
        <mxCell id="2dx92TncNuGPY8GcJ68K-4" value="" style="endArrow=none;dashed=1;html=1;rounded=0;entryX=0.5;entryY=1;entryDx=0;entryDy=0;exitX=0.212;exitY=1.005;exitDx=0;exitDy=0;exitPerimeter=0;" edge="1" parent="1" source="2dx92TncNuGPY8GcJ68K-33" target="2dx92TncNuGPY8GcJ68K-1">
          <mxGeometry width="50" height="50" relative="1" as="geometry">
            <mxPoint x="231" y="686" as="sourcePoint" />
            <mxPoint x="521" y="314" as="targetPoint" />
          </mxGeometry>
        </mxCell>
        <mxCell id="2dx92TncNuGPY8GcJ68K-5" value="" style="endArrow=none;dashed=1;html=1;rounded=0;entryX=0.5;entryY=1;entryDx=0;entryDy=0;" edge="1" parent="1" source="2dx92TncNuGPY8GcJ68K-27">
          <mxGeometry width="50" height="50" relative="1" as="geometry">
            <mxPoint x="440.5" y="686" as="sourcePoint" />
            <mxPoint x="440.5" y="144" as="targetPoint" />
          </mxGeometry>
        </mxCell>
        <mxCell id="2dx92TncNuGPY8GcJ68K-6" value="" style="endArrow=none;dashed=1;html=1;rounded=0;entryX=0.5;entryY=1;entryDx=0;entryDy=0;exitX=0.848;exitY=1;exitDx=0;exitDy=0;exitPerimeter=0;" edge="1" parent="1" source="2dx92TncNuGPY8GcJ68K-33">
          <mxGeometry width="50" height="50" relative="1" as="geometry">
            <mxPoint x="650.5" y="686" as="sourcePoint" />
            <mxPoint x="650.5" y="144" as="targetPoint" />
          </mxGeometry>
        </mxCell>
        <mxCell id="2dx92TncNuGPY8GcJ68K-7" value="" style="endArrow=open;endFill=1;endSize=12;html=1;rounded=0;entryX=0;entryY=0;entryDx=0;entryDy=5;entryPerimeter=0;" edge="1" parent="1" target="2dx92TncNuGPY8GcJ68K-27">
          <mxGeometry width="160" relative="1" as="geometry">
            <mxPoint x="231" y="194" as="sourcePoint" />
            <mxPoint x="421" y="194" as="targetPoint" />
          </mxGeometry>
        </mxCell>
        <mxCell id="2dx92TncNuGPY8GcJ68K-8" value="" style="endArrow=open;endFill=1;endSize=12;html=1;rounded=0;exitX=1;exitY=1;exitDx=0;exitDy=-5;exitPerimeter=0;entryX=0;entryY=0;entryDx=0;entryDy=5;entryPerimeter=0;" edge="1" parent="1" source="2dx92TncNuGPY8GcJ68K-27" target="2dx92TncNuGPY8GcJ68K-32">
          <mxGeometry width="160" relative="1" as="geometry">
            <mxPoint x="451" y="224" as="sourcePoint" />
            <mxPoint x="641" y="224" as="targetPoint" />
          </mxGeometry>
        </mxCell>
        <mxCell id="2dx92TncNuGPY8GcJ68K-10" value="1: Search a file" style="text;html=1;align=center;verticalAlign=middle;resizable=0;points=[];autosize=1;strokeColor=none;fillColor=none;" vertex="1" parent="1">
          <mxGeometry x="271" y="164" width="100" height="30" as="geometry" />
        </mxCell>
        <mxCell id="2dx92TncNuGPY8GcJ68K-11" value="2: Sends Request" style="text;html=1;align=center;verticalAlign=middle;resizable=0;points=[];autosize=1;strokeColor=none;fillColor=none;" vertex="1" parent="1">
          <mxGeometry x="479" y="194" width="120" height="30" as="geometry" />
        </mxCell>
        <mxCell id="2dx92TncNuGPY8GcJ68K-13" value="Alternative" style="shape=umlFrame;whiteSpace=wrap;html=1;pointerEvents=0;width=80;height=29;" vertex="1" parent="1">
          <mxGeometry x="131" y="235" width="580" height="200" as="geometry" />
        </mxCell>
        <mxCell id="2dx92TncNuGPY8GcJ68K-16" value="" style="endArrow=none;dashed=1;html=1;rounded=0;entryX=1;entryY=0.54;entryDx=0;entryDy=0;entryPerimeter=0;exitX=0;exitY=0.515;exitDx=0;exitDy=0;exitPerimeter=0;" edge="1" parent="1" source="2dx92TncNuGPY8GcJ68K-13">
          <mxGeometry width="50" height="50" relative="1" as="geometry">
            <mxPoint x="161" y="336" as="sourcePoint" />
            <mxPoint x="711" y="336" as="targetPoint" />
          </mxGeometry>
        </mxCell>
        <mxCell id="2dx92TncNuGPY8GcJ68K-17" value="[If File Exist]" style="text;html=1;align=center;verticalAlign=middle;resizable=0;points=[];autosize=1;strokeColor=none;fillColor=none;" vertex="1" parent="1">
          <mxGeometry x="136" y="282" width="90" height="30" as="geometry" />
        </mxCell>
        <mxCell id="2dx92TncNuGPY8GcJ68K-18" value="[else]" style="text;html=1;align=center;verticalAlign=middle;resizable=0;points=[];autosize=1;strokeColor=none;fillColor=none;" vertex="1" parent="1">
          <mxGeometry x="146" y="354" width="50" height="30" as="geometry" />
        </mxCell>
        <mxCell id="2dx92TncNuGPY8GcJ68K-19" value="" style="endArrow=open;endSize=12;dashed=1;html=1;rounded=0;entryX=1.1;entryY=0.375;entryDx=0;entryDy=0;entryPerimeter=0;" edge="1" parent="1" target="2dx92TncNuGPY8GcJ68K-30">
          <mxGeometry width="160" relative="1" as="geometry">
            <mxPoint x="641" y="283" as="sourcePoint" />
            <mxPoint x="441" y="284" as="targetPoint" />
          </mxGeometry>
        </mxCell>
        <mxCell id="2dx92TncNuGPY8GcJ68K-20" value="" style="endArrow=open;endSize=12;dashed=1;html=1;rounded=0;" edge="1" parent="1" target="2dx92TncNuGPY8GcJ68K-31">
          <mxGeometry width="160" relative="1" as="geometry">
            <mxPoint x="649" y="381" as="sourcePoint" />
            <mxPoint x="439" y="381" as="targetPoint" />
          </mxGeometry>
        </mxCell>
        <mxCell id="2dx92TncNuGPY8GcJ68K-21" value="3: Sends Response" style="text;html=1;align=center;verticalAlign=middle;resizable=0;points=[];autosize=1;strokeColor=none;fillColor=none;" vertex="1" parent="1">
          <mxGeometry x="474" y="252" width="130" height="30" as="geometry" />
        </mxCell>
        <mxCell id="2dx92TncNuGPY8GcJ68K-22" value="3: Sends Error Code" style="text;whiteSpace=wrap;html=1;" vertex="1" parent="1">
          <mxGeometry x="484" y="344" width="110" height="40" as="geometry" />
        </mxCell>
        <mxCell id="2dx92TncNuGPY8GcJ68K-23" value="" style="endArrow=open;endFill=1;endSize=12;html=1;rounded=0;exitX=0;exitY=1;exitDx=0;exitDy=-5;exitPerimeter=0;" edge="1" parent="1" source="2dx92TncNuGPY8GcJ68K-30">
          <mxGeometry width="160" relative="1" as="geometry">
            <mxPoint x="441" y="304" as="sourcePoint" />
            <mxPoint x="231" y="304" as="targetPoint" />
          </mxGeometry>
        </mxCell>
        <mxCell id="2dx92TncNuGPY8GcJ68K-24" value="4: Display File Content" style="text;html=1;align=center;verticalAlign=middle;resizable=0;points=[];autosize=1;strokeColor=none;fillColor=none;" vertex="1" parent="1">
          <mxGeometry x="266" y="274" width="140" height="30" as="geometry" />
        </mxCell>
        <mxCell id="2dx92TncNuGPY8GcJ68K-25" value="" style="endArrow=open;endFill=1;endSize=12;html=1;rounded=0;" edge="1" parent="1">
          <mxGeometry width="160" relative="1" as="geometry">
            <mxPoint x="435" y="404" as="sourcePoint" />
            <mxPoint x="231" y="404" as="targetPoint" />
          </mxGeometry>
        </mxCell>
        <mxCell id="2dx92TncNuGPY8GcJ68K-26" value="4: Display Error Code" style="text;html=1;align=center;verticalAlign=middle;resizable=0;points=[];autosize=1;strokeColor=none;fillColor=none;" vertex="1" parent="1">
          <mxGeometry x="266" y="374" width="140" height="30" as="geometry" />
        </mxCell>
        <mxCell id="2dx92TncNuGPY8GcJ68K-29" value="" style="endArrow=none;dashed=1;html=1;rounded=0;entryX=0.5;entryY=1;entryDx=0;entryDy=0;exitX=0.527;exitY=1.002;exitDx=0;exitDy=0;exitPerimeter=0;" edge="1" parent="1" source="2dx92TncNuGPY8GcJ68K-33" target="2dx92TncNuGPY8GcJ68K-27">
          <mxGeometry width="50" height="50" relative="1" as="geometry">
            <mxPoint x="440.5" y="686" as="sourcePoint" />
            <mxPoint x="440.5" y="144" as="targetPoint" />
          </mxGeometry>
        </mxCell>
        <mxCell id="2dx92TncNuGPY8GcJ68K-27" value="" style="html=1;points=[[0,0,0,0,5],[0,1,0,0,-5],[1,0,0,0,5],[1,1,0,0,-5]];perimeter=orthogonalPerimeter;outlineConnect=0;targetShapes=umlLifeline;portConstraint=eastwest;newEdgeStyle={&quot;curved&quot;:0,&quot;rounded&quot;:0};fillColor=none;" vertex="1" parent="1">
          <mxGeometry x="435" y="188" width="10" height="40" as="geometry" />
        </mxCell>
        <mxCell id="2dx92TncNuGPY8GcJ68K-30" value="" style="html=1;points=[[0,0,0,0,5],[0,1,0,0,-5],[1,0,0,0,5],[1,1,0,0,-5]];perimeter=orthogonalPerimeter;outlineConnect=0;targetShapes=umlLifeline;portConstraint=eastwest;newEdgeStyle={&quot;curved&quot;:0,&quot;rounded&quot;:0};fillColor=default;" vertex="1" parent="1">
          <mxGeometry x="435" y="268" width="10" height="40" as="geometry" />
        </mxCell>
        <mxCell id="2dx92TncNuGPY8GcJ68K-31" value="" style="html=1;points=[[0,0,0,0,5],[0,1,0,0,-5],[1,0,0,0,5],[1,1,0,0,-5]];perimeter=orthogonalPerimeter;outlineConnect=0;targetShapes=umlLifeline;portConstraint=eastwest;newEdgeStyle={&quot;curved&quot;:0,&quot;rounded&quot;:0};fillColor=default;" vertex="1" parent="1">
          <mxGeometry x="435" y="369" width="10" height="40" as="geometry" />
        </mxCell>
        <mxCell id="2dx92TncNuGPY8GcJ68K-32" value="" style="html=1;points=[[0,0,0,0,5],[0,1,0,0,-5],[1,0,0,0,5],[1,1,0,0,-5]];perimeter=orthogonalPerimeter;outlineConnect=0;targetShapes=umlLifeline;portConstraint=eastwest;newEdgeStyle={&quot;curved&quot;:0,&quot;rounded&quot;:0};fillColor=default;" vertex="1" parent="1">
          <mxGeometry x="645" y="218" width="10" height="76" as="geometry" />
        </mxCell>
        <mxCell id="2dx92TncNuGPY8GcJ68K-33" value="Interaction Sequence Diagram" style="shape=umlFrame;whiteSpace=wrap;html=1;pointerEvents=0;width=180;height=30;" vertex="1" parent="1">
          <mxGeometry x="91" y="44" width="660" height="440" as="geometry" />
        </mxCell>
      </root>
    </mxGraphModel>
  </diagram>
</mxfile>
